<?xml version="1.0" standalone="no"?><svg xmlns:xlink="http://www.w3.org/1999/xlink" xmlns="http://www.w3.org/2000/svg" viewBox="0 0 1000 533.3354914941488" preserveAspectRatio="xMaxYMax slice"><g transform="scale(0.8093103057574336)"><rect x="0" y="0" width="1235.625" height="659" fill="#262626"/><g transform="translate(82.38,0) scale(4.119) rotate(0)"><rect width="20" height="2" fill="#d8325a"/><rect y="4" width="20" height="2" fill="#d8325a"/><rect y="8" width="20" height="2" fill="#d8325a"/><rect y="12" width="20" height="2" fill="#d8325a"/><rect y="16" width="20" height="2" fill="#d8325a"/></g><g transform="translate(329.5,0) scale(4.119) rotate(0)"><path d="M10 1L12.2451 7.90983H19.5106L13.6327 12.1803L15.8779 19.0902L10 14.8197L4.12215 19.0902L6.36729 12.1803L0.489441 7.90983H7.75487L10 1Z" fill="#1d359a"/></g><g transform="translate(576.63,0) scale(4.119) rotate(0)"><rect width="20" height="2" fill="#f63462"/><rect y="4" width="20" height="2" fill="#f63462"/><rect y="8" width="20" height="2" fill="#f63462"/><rect y="12" width="20" height="2" fill="#f63462"/><rect y="16" width="20" height="2" fill="#f63462"/></g><g transform="translate(741.38,0) scale(4.119) rotate(0)"><path d="M10 0H20V10L10 20H0V10L10 0Z" fill="#722b3c"/></g><path d="M 1070.88 82.38 A 82.38 82.38 0 0 1  1153.2600000000002 0 L 1070.88 82.38 A 82.38 82.38 0 0 0 1153.2600000000002 0" fill="#193eda"/><rect x="164.75" y="82.375" width="82.375" height="82.375" fill="#262626"/><g transform="translate(164.75,82.38) scale(2.0595) rotate(0)"><path fill-rule="evenodd" clip-rule="evenodd" d="M10 20C15.5228 20 20 15.5228 20 10C20 4.47715 15.5228 0 10 0C4.47715 0 0 4.47715 0 10C0 15.5228 4.47715 20 10 20ZM10 17C13.866 17 17 13.866 17 10C17 6.13401 13.866 3 10 3C6.13401 3 3 6.13401 3 10C3 13.866 6.13401 17 10 17Z" fill="#602a37"/></g><g transform="translate(164.75,123.56) scale(2.0595) rotate(0)"><path fill-rule="evenodd" clip-rule="evenodd" d="M10 20C15.5228 20 20 15.5228 20 10C20 4.47715 15.5228 0 10 0C4.47715 0 0 4.47715 0 10C0 15.5228 4.47715 20 10 20ZM10 17C13.866 17 17 13.866 17 10C17 6.13401 13.866 3 10 3C6.13401 3 3 6.13401 3 10C3 13.866 6.13401 17 10 17Z" fill="#1a3bc2"/></g><g transform="translate(205.94,123.56) scale(2.0595) rotate(0)"><path d="M13 0H20V7L7 20H0V13L13 0Z" fill="#522933"/></g><rect x="494.25" y="82.375" width="82.375" height="82.375" fill="#262626"/><path d="M 494.25 123.57 A 41.19 41.19 0 0 1  535.44 82.38 L 494.25 123.57 A 41.19 41.19 0 0 0 535.44 82.38" fill="#183edc"/><g transform="translate(576.63,82.38) scale(4.119) rotate(0)"><path fill-rule="evenodd" clip-rule="evenodd" d="M10 20C15.5228 20 20 15.5228 20 10C20 4.47715 15.5228 0 10 0C4.47715 0 0 4.47715 0 10C0 15.5228 4.47715 20 10 20ZM10 17C13.866 17 17 13.866 17 10C17 6.13401 13.866 3 10 3C6.13401 3 3 6.13401 3 10C3 13.866 6.13401 17 10 17Z" fill="#282627"/></g><g transform="translate(659,82.38) scale(4.119) rotate(0)"><rect width="2" height="20" fill="#1b3aba"/><rect x="4" width="2" height="20" fill="#1b3aba"/><rect x="8" width="2" height="20" fill="#1b3aba"/><rect x="12" width="2" height="20" fill="#1b3aba"/><rect x="16" width="2" height="20" fill="#1b3aba"/></g><circle cx="1112.0700000000002" cy="123.57" r="41.19" fill="#6e2b3b"/><g transform="translate(164.75,164.75) scale(4.119) rotate(0)"><rect width="20" height="10" fill="#39272c"/></g><g transform="translate(576.63,164.75) scale(4.119) rotate(0)"><path d="M13 0H20V7L7 20H0V13L13 0Z" fill="#203071"/></g><g transform="translate(659,164.75) scale(4.119) rotate(0)"><path d="M10 0L20 10L10 20L0 10L10 0Z" fill="#e2335d"/></g><g transform="translate(0,247.13) scale(4.119) rotate(0)"><path d="M19.9981 0.00193429L3.72652 -7.68637e-07L8.4784 4.75382L0 13.2345L6.76585 20L15.2462 11.5208L20 16.2746L19.9981 0.00193429Z" fill="#fd3564"/></g><rect x="82.38" y="247.13" width="82.38" height="82.38" fill="#ec345f"/><rect x="164.75" y="247.125" width="82.375" height="82.375" fill="#262626"/><g transform="translate(247.13,247.13) scale(4.119) rotate(0)"><rect width="20" height="10" fill="#1d3598"/></g><g transform="translate(329.5,247.13) scale(4.119) rotate(0)"><path d="M13 0H20V7L7 20H0V13L13 0Z" fill="#9f2e49"/></g><g transform="translate(411.88,247.13) scale(4.119) rotate(0)"><path d="M10 0L20 10L10 20L0 10L10 0Z" fill="#222e5f"/></g><rect x="659" y="247.125" width="82.375" height="82.375" fill="#262626"/><g transform="translate(659,288.31) scale(2.0595) rotate(0)"><rect width="2" height="20" fill="#c33154"/><rect x="4" width="2" height="20" fill="#c33154"/><rect x="8" width="2" height="20" fill="#c33154"/><rect x="12" width="2" height="20" fill="#c33154"/><rect x="16" width="2" height="20" fill="#c33154"/></g><g transform="translate(741.38,247.13) scale(4.119) rotate(0)"><rect width="2" height="20" fill="#1b39b2"/><rect x="4" width="2" height="20" fill="#1b39b2"/><rect x="8" width="2" height="20" fill="#1b39b2"/><rect x="12" width="2" height="20" fill="#1b39b2"/><rect x="16" width="2" height="20" fill="#1b39b2"/></g><g transform="translate(0,329.5) scale(4.119) rotate(0)"><path fill-rule="evenodd" clip-rule="evenodd" d="M10 20C15.5228 20 20 15.5228 20 10C20 4.47715 15.5228 0 10 0C4.47715 0 0 4.47715 0 10C0 15.5228 4.47715 20 10 20ZM10 17C13.866 17 17 13.866 17 10C17 6.13401 13.866 3 10 3C6.13401 3 3 6.13401 3 10C3 13.866 6.13401 17 10 17Z" fill="#262629"/></g><g transform="translate(82.38,329.5) scale(4.119) rotate(0)"><path d="M10 5L5 0L0 5L5 10L0 15L5 20L10 15L15 20L20 15L15 10L20 5L15 0L10 5Z" fill="#1d3599"/></g><rect x="164.75" y="329.5" width="82.375" height="82.375" fill="#262626"/><g transform="translate(205.94,370.69) scale(2.0595) rotate(0)"><path d="M13 0H20V7L7 20H0V13L13 0Z" fill="#d33258"/></g><rect x="494.25" y="329.5" width="82.375" height="82.375" fill="#262626"/><path d="M 535.44 370.69 A 41.19 41.19 0 0 1  576.6300000000001 329.5 L 535.44 370.69 A 41.19 41.19 0 0 0 576.6300000000001 329.5" fill="#ab2f4d"/><rect x="906.125" y="329.5" width="82.375" height="82.375" fill="#262626"/><g transform="translate(947.31,370.69) scale(2.0595) rotate(0)"><path d="M19.9981 0.00193429L3.72652 -7.68637e-07L8.4784 4.75382L0 13.2345L6.76585 20L15.2462 11.5208L20 16.2746L19.9981 0.00193429Z" fill="#222c55"/></g><g transform="translate(988.5,329.5) scale(4.119) rotate(0)"><path d="M10 0L20 10L10 20L0 10L10 0Z" fill="#193dd1"/></g><g transform="translate(164.75,411.88) scale(4.119) rotate(0)"><rect width="20" height="10" fill="#1e3492"/></g><g transform="translate(329.5,411.88) scale(4.119) rotate(0)"><path d="M10 0L20 10L10 20L0 10L10 0Z" fill="#26262a"/></g><g transform="translate(576.63,411.88) scale(4.119) rotate(0)"><path d="M10 1L12.2451 7.90983H19.5106L13.6327 12.1803L15.8779 19.0902L10 14.8197L4.12215 19.0902L6.36729 12.1803L0.489441 7.90983H7.75487L10 1Z" fill="#3d282d"/></g><rect x="741.375" y="411.875" width="82.375" height="82.375" fill="#262626"/><g transform="translate(782.56,411.88) scale(2.0595) rotate(0)"><rect width="20" height="2" fill="#5b2a35"/><rect y="4" width="20" height="2" fill="#5b2a35"/><rect y="8" width="20" height="2" fill="#5b2a35"/><rect y="12" width="20" height="2" fill="#5b2a35"/><rect y="16" width="20" height="2" fill="#5b2a35"/></g><g transform="translate(906.13,411.88) scale(4.119) rotate(0)"><path d="M10 1L12.2451 7.90983H19.5106L13.6327 12.1803L15.8779 19.0902L10 14.8197L4.12215 19.0902L6.36729 12.1803L0.489441 7.90983H7.75487L10 1Z" fill="#1c37a9"/></g><rect x="988.5" y="411.875" width="82.375" height="82.375" fill="#262626"/><g transform="translate(988.5,453.06) scale(2.0595) rotate(0)"><path d="M10 0H20V10L10 20H0V10L10 0Z" fill="#252835"/></g><g transform="translate(82.38,494.25) scale(4.119) rotate(0)"><path d="M10 0H20L0 20V10L10 0Z" fill="#1a3bc2"/><path d="M20 10V20H10L20 10Z" fill="#1a3bc2"/></g><rect x="1070.875" y="494.25" width="82.375" height="82.375" fill="#262626"/><g transform="translate(247.13,576.63) scale(4.119) rotate(0)"><rect width="20" height="10" fill="#252730"/></g><path d="M 329.5 659.01 A 82.38 82.38 0 0 1  411.88 576.63 L 329.5 659.01 A 82.38 82.38 0 0 0 411.88 576.63" fill="#d73259"/><g transform="translate(411.88,576.63) scale(4.119) rotate(0)"><path d="M10 0H20V10L10 20H0V10L10 0Z" fill="#1d359a"/></g><rect x="576.625" y="576.625" width="82.375" height="82.375" fill="#262626"/><g transform="translate(576.63,617.81) scale(2.0595) rotate(0)"><path fill-rule="evenodd" clip-rule="evenodd" d="M10 20C15.5228 20 20 15.5228 20 10C20 4.47715 15.5228 0 10 0C4.47715 0 0 4.47715 0 10C0 15.5228 4.47715 20 10 20ZM10 17C13.866 17 17 13.866 17 10C17 6.13401 13.866 3 10 3C6.13401 3 3 6.13401 3 10C3 13.866 6.13401 17 10 17Z" fill="#35272a"/></g><g transform="translate(617.81,617.81) scale(2.0595) rotate(0)"><path fill-rule="evenodd" clip-rule="evenodd" d="M10 20C15.5228 20 20 15.5228 20 10C20 4.47715 15.5228 0 10 0C4.47715 0 0 4.47715 0 10C0 15.5228 4.47715 20 10 20ZM10 17C13.866 17 17 13.866 17 10C17 6.13401 13.866 3 10 3C6.13401 3 3 6.13401 3 10C3 13.866 6.13401 17 10 17Z" fill="#1b39b4"/></g><rect x="823.75" y="576.625" width="82.375" height="82.375" fill="#262626"/><g transform="translate(823.75,576.63) scale(2.0595) rotate(0)"><rect width="20" height="2" fill="#cb3156"/><rect y="4" width="20" height="2" fill="#cb3156"/><rect y="8" width="20" height="2" fill="#cb3156"/><rect y="12" width="20" height="2" fill="#cb3156"/><rect y="16" width="20" height="2" fill="#cb3156"/></g><g transform="translate(823.75,617.81) scale(2.0595) rotate(0)"><rect width="2" height="20" fill="#492830"/><rect x="4" width="2" height="20" fill="#492830"/><rect x="8" width="2" height="20" fill="#492830"/><rect x="12" width="2" height="20" fill="#492830"/><rect x="16" width="2" height="20" fill="#492830"/></g><g transform="translate(864.94,617.81) scale(2.0595) rotate(0)"><path d="M10 0L20 10L10 20L0 10L10 0Z" fill="#962e47"/></g></g></svg>